<svg xmlns="http://www.w3.org/2000/svg" width="60mm" height="60mm" viewBox="0 0 60 60"><g style="display:inline"><path d="m28.72 13.834-.23.016a.13.13 0 0 0-.12.132v32.05a.13.13 0 0 0 .12.132l.23.016a.13.13 0 0 0 .141-.133V13.965a.13.13 0 0 0-.14-.131M26.875 14.086l-.232.049a.13.13 0 0 0-.104.129v31.484a.13.13 0 0 0 .104.129q.115.026.232.05a.132.132 0 0 0 .158-.128V14.215a.132.132 0 0 0-.158-.13M25.025 14.549l-.23.086a.13.13 0 0 0-.084.123v30.496a.13.13 0 0 0 .084.123q.115.044.23.086a.132.132 0 0 0 .178-.123V14.674a.132.132 0 0 0-.178-.125M23.176 15.252q-.116.062-.23.127a.13.13 0 0 0-.069.115V44.52a.13.13 0 0 0 .068.115l.23.127a.132.132 0 0 0 .196-.117V15.369a.132.132 0 0 0-.195-.117M21.473 16.252a.13.13 0 0 0-.135.004q-.116.072-.23.148a.13.13 0 0 0-.061.11v26.984a.13.13 0 0 0 .06.111l.23.149a.132.132 0 0 0 .204-.113V16.367a.13.13 0 0 0-.068-.115M19.633 17.594a.13.13 0 0 0-.14.02q-.117.096-.231.197a.13.13 0 0 0-.047.1v24.193a.13.13 0 0 0 .047.1l.23.196a.132.132 0 0 0 .217-.101V17.715a.13.13 0 0 0-.076-.121M17.79 19.41a.13.13 0 0 0-.15.045q-.116.152-.23.307a.13.13 0 0 0-.025.078v20.332a.13.13 0 0 0 .025.078q.114.156.23.309a.132.132 0 0 0 .239-.08V19.535a.13.13 0 0 0-.09-.125M15.95 22.111a.13.13 0 0 0-.151.063q-.12.21-.23.422a.13.13 0 0 0-.016.062v14.697a.13.13 0 0 0 .015.061q.113.214.23.424a.132.132 0 0 0 .249-.065V22.238a.13.13 0 0 0-.098-.127" style="stroke-linejoin:round;stroke:none;stroke-opacity:1;fill:#2dba3a;fill-opacity:1"/><path d="M43.258 31.769a11.042 11.314 0 0 1-3.192 7.014l-7.808-8z" style="fill:#d381e6;fill-opacity:1;stroke:none;stroke-width:.183315;stroke-linejoin:round;stroke-dasharray:none;stroke-opacity:1"/><path d="M39.24 40.296a11.314 11 0 0 1-8 3.222v-11z" style="fill:#e1a4ef;fill-opacity:1;stroke:none;stroke-width:.182965;stroke-linejoin:round;stroke-dasharray:none;stroke-opacity:1"/><path d="M39.999 20.762a11 11.314 0 0 1 3.222 8h-11z" style="fill:#ae69be;fill-opacity:1;stroke:none;stroke-width:.182965;stroke-linejoin:round;stroke-dasharray:none;stroke-opacity:1"/><path d="M31.24 16.386a11.314 11 0 0 1 8 3.221l-8 7.779z" style="fill:#8d549a;fill-opacity:1;stroke:none;stroke-width:.182965;stroke-linejoin:round;stroke-dasharray:none;stroke-opacity:1"/></g></svg>