<svg xmlns="http://www.w3.org/2000/svg" xmlns:xlink="http://www.w3.org/1999/xlink" width="400mm" height="100mm" viewBox="0 0 400 100"><defs><linearGradient id="a"><stop offset="0" style="stop-color:#73beff;stop-opacity:1"/><stop offset="1" style="stop-color:#1494ec;stop-opacity:1"/></linearGradient><linearGradient xlink:href="#a" id="b" x1="105.926" x2="105.926" y1="183.587" y2="28.264" gradientTransform="matrix(2.5974 0 0 1.07655 -75.132 -64.035)" gradientUnits="userSpaceOnUse"/></defs><path d="M0 0h400v100H0z" style="fill:url(#b);stroke:none;stroke-width:2.21219;stroke-linejoin:round"/><path d="M112.351 29.384a19.59 11.235 0 0 0-19.59 11.235 19.59 11.235 0 0 0 .767 3.074 17.573 11.235 0 0 0-9.12-1.633 17.573 11.235 0 0 0-16.81 8.147 13.828 8.354 0 0 0-1.916-.08 13.828 8.354 0 0 0-13.827 8.353 13.828 8.354 0 0 0 13.827 8.355 13.828 8.354 0 0 0 9.656-2.383 22.182 8.066 0 0 0-1.013 2.383A22.182 8.066 0 0 0 96.507 74.9a22.182 8.066 0 0 0 19.962-4.577 18.725 12.387 0 0 0 5.39.544 18.725 12.387 0 0 0 18.724-12.388 18.725 12.387 0 0 0-2.123-5.725 16.133 8.354 0 0 0 3.852.252 16.133 8.354 0 0 0 16.132-8.354 16.133 8.354 0 0 0-16.132-8.355 16.133 8.354 0 0 0-10.746 2.147 19.59 11.235 0 0 0-19.215-9.06m-11.247 20.409a19.59 11.235 0 0 0 .882.338 11.235 6.914 0 0 0-.554.388 17.573 11.235 0 0 0-.328-.726m-1.39 9.005a21.318 3.745 0 0 0 .24.07 22.182 8.066 0 0 0-.282-.015 17.573 11.235 0 0 0 .042-.055M261.289 20.166a19.301 12.676 0 0 0-19.25 12.16 31.4 15.268 0 0 0-14.743-1.79 31.4 15.268 0 0 0-31.401 15.269 31.4 15.268 0 0 0 5.017 8.217 30.248 9.795 0 0 0-11.355 7.627 30.248 9.795 0 0 0 30.249 9.795 30.248 9.795 0 0 0 11.71-.78 12.676 10.083 0 0 0 2.406.204 12.676 10.083 0 0 0 8.538-2.73 30.248 9.795 0 0 0 2.24-.925 23.335 12.1 0 0 0 20.622 6.535 23.335 12.1 0 0 0 23.335-12.099 23.335 12.1 0 0 0-1.144-3.735 24.199 14.404 0 0 0 2.296-6.06 24.199 14.404 0 0 0-12.035-12.448 19.301 12.676 0 0 0 2.817-6.565 19.301 12.676 0 0 0-19.302-12.675M349.154 36.298a16.133 18.15 0 0 0-11.454 5.433 24.487 15.556 0 0 0-7.848-.823 24.487 15.556 0 0 0-23.496 11.238 29.384 17.285 0 0 0-12.514 14.112 29.384 17.285 0 0 0 29.384 17.285 29.384 17.285 0 0 0 22.788-6.41 15.844 14.98 0 0 0 15.527 12.172 15.844 14.98 0 0 0 15.845-14.98 15.844 14.98 0 0 0-1.579-6.513 19.013 12.1 0 0 0 12.525-11.348 19.013 12.1 0 0 0-19.013-12.1 19.013 12.1 0 0 0-6.35.722 16.133 18.15 0 0 0-13.815-8.788M354.627-5.186a11.235 6.914 0 0 0-11.207 6.65 19.013 8.066 0 0 0-4.015-.294 8.354 5.762 0 0 0-7.248-2.898 8.354 5.762 0 0 0-8.35 5.704 19.013 8.066 0 0 0-2.186 1.312 13.252 10.37 0 0 0-1.852-.103 13.252 10.37 0 0 0-13.251 10.371 13.252 10.37 0 0 0 13.251 10.371 13.252 10.37 0 0 0 13.128-8.973 19.013 8.066 0 0 0 5.31.33A19.013 8.066 0 0 0 350.5 15.35a16.133 5.185 0 0 0 4.414.206 16.133 5.185 0 0 0 16.133-5.185 16.133 5.185 0 0 0-7.565-4.393 11.235 6.914 0 0 0 2.38-4.25 11.235 6.914 0 0 0-11.236-6.914M165.07 66.258a18.15 12.387 0 0 0-18.149 12.388 18.15 12.387 0 0 0 .005.054 18.725 9.795 0 0 0-13.833 9.453 18.725 9.795 0 0 0 18.726 9.795 18.725 9.795 0 0 0 6.785-.678 22.758 11.811 0 0 0 16.26 3.558 22.758 11.811 0 0 0 22.76-11.811 22.758 11.811 0 0 0-14.429-10.989 18.15 12.387 0 0 0-18.125-11.77M261.001 78.358a21.894 14.404 0 0 0-16.396 4.905 20.454 10.659 0 0 0-8.09-.872 20.454 10.659 0 0 0-20.455 10.66 20.454 10.659 0 0 0 20.454 10.658 20.454 10.659 0 0 0 8.656-1.024A21.894 14.404 0 0 0 261 107.166a21.894 14.404 0 0 0 21.894-14.404A21.894 14.404 0 0 0 261 78.358M189.845-1.152a22.182 8.066 0 0 0-21.12 5.649 18.437 7.49 0 0 0-11.433-1.616 18.437 7.49 0 0 0-18.437 7.49 18.437 7.49 0 0 0 18.437 7.49 18.437 7.49 0 0 0 12.263-1.918 17.861 10.947 0 0 0-.74 3.07 17.861 10.947 0 0 0 17.86 10.947 17.861 10.947 0 0 0 17.536-8.985 13.54 5.474 0 0 0 4.648.343 13.54 5.474 0 0 0 13.54-5.473 13.54 5.474 0 0 0-12.57-5.46 22.182 8.066 0 0 0 2.198-3.471 22.182 8.066 0 0 0-22.182-8.066" style="fill:#fff;stroke:none;stroke-width:1.32292;stroke-linejoin:round"/><ellipse cx="94.49" cy="-.288" rx="20.166" ry="8.354" style="fill:#fff;stroke:none;stroke-width:1.32292;stroke-linejoin:round"/><path d="M11.811 66.258A11.811 8.354 0 0 0 0 74.613a11.811 8.354 0 0 0 5.211 6.907 7.202 10.659 0 0 0-.026.583 7.202 10.659 0 0 0 .331 3.133 9.507 7.49 0 0 0-2.059 4.645 9.507 7.49 0 0 0 9.507 7.49 9.507 7.49 0 0 0 7.582-2.977 13.828 10.37 0 0 0 6.533 1.249 13.828 10.37 0 0 0 .637-.032 13.54 8.066 0 0 0 13.48 7.522 13.54 8.066 0 0 0 13.54-8.066 13.54 8.066 0 0 0-2.473-4.644 4.897 3.169 0 0 0 1.533-.32 13.54 7.202 0 0 0 4.108.355 13.54 7.202 0 0 0 13.54-7.203 13.54 7.202 0 0 0-13.54-7.202 13.54 7.202 0 0 0-2.335.122 19.59 7.202 0 0 0-13.062-2.402 15.556 8.642 0 0 0-14.275-5.21 15.556 8.642 0 0 0-7.057.96 11.811 8.354 0 0 0-9.364-3.265" style="fill:#fff;fill-opacity:1;stroke:none;stroke-width:1.32292;stroke-linejoin:round"/><path d="M50.702 8.066a20.742 11.523 0 0 0-17.983 5.785 16.997 13.252 0 0 0-10.537-2.904A16.997 13.252 0 0 0 5.185 24.2 16.997 13.252 0 0 0 22.182 37.45a16.997 13.252 0 0 0 11.58-3.63 9.507 8.354 0 0 0 8.586 4.783 9.507 8.354 0 0 0 9.44-7.53A20.742 11.523 0 0 0 71.444 19.59 20.742 11.523 0 0 0 50.702 8.066" style="fill:#ccc;stroke:none;stroke-width:1.32292;stroke-linejoin:round"/><path d="M50.702 8.066a20.742 11.523 0 0 0-17.983 5.785 16.997 13.252 0 0 0-10.537-2.904A16.997 13.252 0 0 0 5.185 24.2 16.997 13.252 0 0 0 22.182 37.45a16.997 13.252 0 0 0 11.58-3.63 9.507 8.354 0 0 0 8.586 4.783 9.507 8.354 0 0 0 9.44-7.53A20.742 11.523 0 0 0 71.444 19.59 20.742 11.523 0 0 0 50.702 8.066" style="fill:#fff;stroke:none;stroke-width:1.32292;stroke-linejoin:round"/></svg>