<?xml version="1.0" encoding="UTF-8" standalone="no"?>
<!-- Created with Inkscape (http://www.inkscape.org/) -->

<svg
   width="400mm"
   height="100mm"
   viewBox="0 0 400 100"
   version="1.1"
   id="svg1"
   inkscape:version="1.4 (e7c3feb1, 2024-10-09)"
   sodipodi:docname="cloud.svg"
   xmlns:inkscape="http://www.inkscape.org/namespaces/inkscape"
   xmlns:sodipodi="http://sodipodi.sourceforge.net/DTD/sodipodi-0.dtd"
   xmlns:xlink="http://www.w3.org/1999/xlink"
   xmlns="http://www.w3.org/2000/svg"
   xmlns:svg="http://www.w3.org/2000/svg">
  <sodipodi:namedview
     id="namedview1"
     pagecolor="#ffffff"
     bordercolor="#000000"
     borderopacity="0.25"
     inkscape:showpageshadow="2"
     inkscape:pageopacity="0.0"
     inkscape:pagecheckerboard="0"
     inkscape:deskcolor="#d1d1d1"
     inkscape:document-units="mm"
     inkscape:zoom="0.45921764"
     inkscape:cx="654.37382"
     inkscape:cy="425.72406"
     inkscape:window-width="1920"
     inkscape:window-height="1022"
     inkscape:window-x="0"
     inkscape:window-y="30"
     inkscape:window-maximized="0"
     inkscape:current-layer="layer1" />
  <defs
     id="defs1">
    <linearGradient
       id="linearGradient1"
       inkscape:collect="always">
      <stop
         style="stop-color:#73beff;stop-opacity:1;"
         offset="0"
         id="stop2" />
      <stop
         style="stop-color:#1494ec;stop-opacity:1;"
         offset="1"
         id="stop1" />
    </linearGradient>
    <linearGradient
       inkscape:collect="always"
       xlink:href="#linearGradient1"
       id="linearGradient2"
       x1="105.92593"
       y1="183.58739"
       x2="105.92593"
       y2="28.264465"
       gradientUnits="userSpaceOnUse"
       gradientTransform="matrix(2.5974026,0,0,1.076555,-75.13227,-64.035087)" />
  </defs>
  <g
     inkscape:label="Layer 1"
     inkscape:groupmode="layer"
     id="layer1">
    <rect
       style="fill:url(#linearGradient2);stroke:none;stroke-width:2.21219;stroke-linejoin:round"
       id="rect1"
       width="400"
       height="100"
       x="0"
       y="0"
       inkscape:label="sky" />
    <path
       id="path2"
       style="fill:#ffffff;stroke:none;stroke-width:1.32292;stroke-linejoin:round"
       d="M 112.35128 29.384253 A 19.589478 11.235141 0 0 0 92.76178 40.619226 A 19.589478 11.235141 0 0 0 93.527625 43.69294 A 17.572914 11.235141 0 0 0 84.407768 42.059965 A 17.572914 11.235141 0 0 0 67.597424 50.207271 A 13.827867 8.3543358 0 0 0 65.682296 50.126139 A 13.827867 8.3543358 0 0 0 51.854716 58.480151 A 13.827867 8.3543358 0 0 0 65.682296 66.83468 A 13.827867 8.3543358 0 0 0 75.33752 64.452397 A 22.182201 8.0662546 0 0 0 74.324662 66.83468 A 22.182201 8.0662546 0 0 0 96.506771 74.900854 A 22.182201 8.0662546 0 0 0 116.46938 70.323873 A 18.725235 12.387464 0 0 0 121.85819 70.868026 A 18.725235 12.387464 0 0 0 140.58315 58.480151 A 18.725235 12.387464 0 0 0 138.45977 52.755436 A 16.132509 8.3543358 0 0 0 142.31173 53.006584 A 16.132509 8.3543358 0 0 0 158.44408 44.652572 A 16.132509 8.3543358 0 0 0 142.31173 36.298043 A 16.132509 8.3543358 0 0 0 131.56613 38.444682 A 19.589478 11.235141 0 0 0 112.35128 29.384253 z M 101.10391 49.792826 A 19.589478 11.235141 0 0 0 101.98551 50.13079 A 11.235141 6.9139333 0 0 0 101.43153 50.51888 A 17.572914 11.235141 0 0 0 101.10391 49.792826 z M 99.714327 58.798478 A 21.317959 3.7450471 0 0 0 99.954106 58.867725 A 22.182201 8.0662546 0 0 0 99.672469 58.852738 A 17.572914 11.235141 0 0 0 99.714327 58.798478 z "
       inkscape:label=".25 .5" />
    <path
       id="path11"
       style="fill:#ffffff;stroke:none;stroke-width:1.32292;stroke-linejoin:round"
       d="M 261.28896 20.165694 A 19.301395 12.675544 0 0 0 242.03897 32.326709 A 31.400778 15.268268 0 0 0 227.29569 30.536637 A 31.400778 15.268268 0 0 0 195.8945 45.804956 A 31.400778 15.268268 0 0 0 200.91228 54.022026 A 30.248457 9.7947388 0 0 0 189.55691 61.649467 A 30.248457 9.7947388 0 0 0 219.8057 71.444218 A 30.248457 9.7947388 0 0 0 231.51662 70.663904 A 12.675544 10.082819 0 0 0 233.92164 70.868026 A 12.675544 10.082819 0 0 0 242.46014 68.138477 A 30.248457 9.7947388 0 0 0 244.69928 67.213468 A 23.334522 12.099382 0 0 0 265.32231 73.74847 A 23.334522 12.099382 0 0 0 288.6568 61.649467 A 23.334522 12.099382 0 0 0 287.5132 57.914294 A 24.198765 14.404027 0 0 0 289.80918 51.854716 A 24.198765 14.404027 0 0 0 277.77374 39.405863 A 19.301395 12.675544 0 0 0 280.59062 32.841406 A 19.301395 12.675544 0 0 0 261.28896 20.165694 z "
       inkscape:label=".65 .5" />
    <path
       id="path19"
       style="fill:#ffffff;stroke:none;stroke-width:1.32292;stroke-linejoin:round"
       d="M 349.15388 36.298043 A 16.132509 18.149075 0 0 0 337.6998 41.731303 A 24.486845 15.556349 0 0 0 329.85222 40.907581 A 24.486845 15.556349 0 0 0 306.35598 52.145654 A 29.384214 17.284832 0 0 0 293.84201 66.258488 A 29.384214 17.284832 0 0 0 323.22627 83.543221 A 29.384214 17.284832 0 0 0 346.01351 77.133276 A 15.84443 14.980188 0 0 0 361.54124 89.305143 A 15.84443 14.980188 0 0 0 377.38575 74.324662 A 15.84443 14.980188 0 0 0 375.80704 67.812398 A 19.013315 12.099382 0 0 0 388.33237 56.463737 A 19.013315 12.099382 0 0 0 369.31906 44.364217 A 19.013315 12.099382 0 0 0 362.96906 45.08562 A 16.132509 18.149075 0 0 0 349.15388 36.298043 z "
       inkscape:label=".85 .35" />
    <path
       id="path25"
       style="fill:#ffffff;stroke:none;stroke-width:1.32292;stroke-linejoin:round"
       d="m 354.62703,-5.1855743 a 11.235141,6.9139333 0 0 0 -11.20655,6.6486898 19.013315,8.0662546 0 0 0 -4.01578,-0.2930054 8.3543358,5.761611 0 0 0 -7.24762,-2.8985311 8.3543358,5.761611 0 0 0 -8.34936,5.7045614 19.013315,8.0662546 0 0 0 -2.18643,1.3115479 13.251704,10.370899 0 0 0 -1.85208,-0.1023194 13.251704,10.370899 0 0 0 -13.25139,10.3709441 13.251704,10.370899 0 0 0 13.25139,10.370943 13.251704,10.370899 0 0 0 13.12736,-8.973096 19.013315,8.0662546 0 0 0 5.30976,0.330729 19.013315,8.0662546 0 0 0 12.29485,-1.934765 16.132509,5.1854496 0 0 0 4.4142,0.206189 16.132509,5.1854496 0 0 0 16.13235,-5.185214 16.132509,5.1854496 0 0 0 -7.56491,-4.3930136 11.235141,6.9139333 0 0 0 2.3797,-4.249353 11.235141,6.9139333 0 0 0 -11.23549,-6.9143067 z"
       inkscape:label=".85 .9" />
    <path
       id="path42"
       style="fill:#ffffff;stroke:none;stroke-width:1.32292;stroke-linejoin:round"
       d="M 165.07003 66.258488 A 18.149075 12.387464 0 0 0 146.92126 78.645846 A 18.149075 12.387464 0 0 0 146.92643 78.700106 A 18.725235 9.7947388 0 0 0 133.09317 88.152759 A 18.725235 9.7947388 0 0 0 151.81864 97.94751 A 18.725235 9.7947388 0 0 0 158.60427 97.269515 A 22.758364 11.811302 0 0 0 174.86478 100.82795 A 22.758364 11.811302 0 0 0 197.62308 89.016789 A 22.758364 11.811302 0 0 0 183.19502 78.028312 A 18.149075 12.387464 0 0 0 165.07003 66.258488 z "
       inkscape:label=".4 .2" />
    <path
       id="path45"
       style="fill:#ffffff;stroke:none;stroke-width:1.32292;stroke-linejoin:round"
       d="M 261.00112 78.358008 A 21.894121 14.404027 0 0 0 244.60522 83.262618 A 20.453718 10.658979 0 0 0 236.51425 82.390837 A 20.453718 10.658979 0 0 0 216.0602 93.050134 A 20.453718 10.658979 0 0 0 236.51425 103.70892 A 20.453718 10.658979 0 0 0 245.16953 102.68469 A 21.894121 14.404027 0 0 0 261.00112 107.16607 A 21.894121 14.404027 0 0 0 282.89488 92.76178 A 21.894121 14.404027 0 0 0 261.00112 78.358008 z "
       inkscape:label=".6 .1" />
    <path
       id="path47"
       style="fill:#ffffff;stroke:none;stroke-width:1.32292;stroke-linejoin:round"
       d="M 189.84526 -1.1523844 A 22.182201 8.0662546 0 0 0 168.72458 4.4968831 A 18.437153 7.4900942 0 0 0 157.29221 2.8809611 A 18.437153 7.4900942 0 0 0 138.85457 10.370943 A 18.437153 7.4900942 0 0 0 157.29221 17.860925 A 18.437153 7.4900942 0 0 0 169.55503 15.943213 A 17.860994 10.947061 0 0 0 168.81502 19.01331 A 17.860994 10.947061 0 0 0 186.67594 29.960445 A 17.860994 10.947061 0 0 0 204.21131 20.974947 A 13.539785 5.4735303 0 0 0 208.85857 21.318079 A 13.539785 5.4735303 0 0 0 222.39831 15.844511 A 13.539785 5.4735303 0 0 0 209.82854 10.385929 A 22.182201 8.0662546 0 0 0 212.02737 6.9137899 A 22.182201 8.0662546 0 0 0 189.84526 -1.1523844 z "
       inkscape:label=".45 .85" />
    <ellipse
       style="fill:#ffffff;stroke:none;stroke-width:1.32292;stroke-linejoin:round"
       id="path51"
       cx="94.490417"
       cy="-0.28808051"
       rx="20.165638"
       ry="8.3543358"
       inkscape:label=".3 1" />
    <path
       id="path53"
       style="fill:#ffffff;fill-opacity:1;stroke:none;stroke-width:1.32292;stroke-linejoin:round"
       d="M 11.811165 66.258488 A 11.811302 8.3543358 0 0 0 0 74.613017 A 11.811302 8.3543358 0 0 0 5.2110514 81.519572 A 7.2020135 10.658979 0 0 0 5.1852132 82.102999 A 7.2020135 10.658979 0 0 0 5.5164591 85.236141 A 9.5066576 7.4900942 0 0 0 3.4571533 89.881335 A 9.5066576 7.4900942 0 0 0 12.96355 97.371318 A 9.5066576 7.4900942 0 0 0 20.545516 94.393722 A 13.827867 10.370899 0 0 0 27.079484 95.642741 A 13.827867 10.370899 0 0 0 27.715621 95.611218 A 13.539785 8.0662546 0 0 0 41.195418 103.13272 A 13.539785 8.0662546 0 0 0 54.73516 95.066549 A 13.539785 8.0662546 0 0 0 52.26296 90.422904 A 4.8973694 3.1688862 0 0 0 53.795683 90.103027 A 13.539785 7.2020135 0 0 0 57.903959 90.457528 A 13.539785 7.2020135 0 0 0 71.444218 83.255383 A 13.539785 7.2020135 0 0 0 57.903959 76.053239 A 13.539785 7.2020135 0 0 0 55.569218 76.174679 A 19.589478 7.2020135 0 0 0 42.506966 73.772758 A 15.556349 8.642416 0 0 0 28.231868 68.563257 A 15.556349 8.642416 0 0 0 21.175452 69.523405 A 11.811302 8.3543358 0 0 0 11.811165 66.258488 z "
       inkscape:label=".2 .3" />
    <path
       id="path1"
       style="fill:#cccccc;stroke:none;stroke-width:1.32292;stroke-linejoin:round"
       d="M 50.702332 8.0661743 A 20.741798 11.523222 0 0 0 32.718933 13.850834 A 16.996752 13.251704 0 0 0 22.182109 10.947135 A 16.996752 13.251704 0 0 0 5.1852132 24.198523 A 16.996752 13.251704 0 0 0 22.182109 37.450427 A 16.996752 13.251704 0 0 0 33.762797 33.819124 A 9.5066576 8.3543358 0 0 0 42.347803 38.602812 A 9.5066576 8.3543358 0 0 0 51.787537 31.073039 A 20.741798 11.523222 0 0 0 71.444218 19.589502 A 20.741798 11.523222 0 0 0 50.702332 8.0661743 z "
       inkscape:label=".15 .8" />
    <path
       id="path34"
       style="fill:#ffffff;stroke:none;stroke-width:1.32292;stroke-linejoin:round"
       d="M 50.702332 8.0661743 A 20.741798 11.523222 0 0 0 32.718933 13.850834 A 16.996752 13.251704 0 0 0 22.182109 10.947135 A 16.996752 13.251704 0 0 0 5.1852132 24.198523 A 16.996752 13.251704 0 0 0 22.182109 37.450427 A 16.996752 13.251704 0 0 0 33.762797 33.819124 A 9.5066576 8.3543358 0 0 0 42.347803 38.602812 A 9.5066576 8.3543358 0 0 0 51.787537 31.073039 A 20.741798 11.523222 0 0 0 71.444218 19.589502 A 20.741798 11.523222 0 0 0 50.702332 8.0661743 z "
       inkscape:label=".15 .8" />
  </g>
</svg>
