<svg xmlns="http://www.w3.org/2000/svg" width="253" height="205" fill="none"><g clip-path="url(#a)"><path fill="#fff" d="M228.79 106.76a40.265 40.265 0 0 0-26.63-38 57.21 57.21 0 0 0 1.07-11A57.77 57.77 0 0 0 98.6 24a30.69 30.69 0 0 0-47.55 34.92A40.8 40.8 0 0 0 24.21 97 40.289 40.289 0 0 0 51 135.12a57.66 57.66 0 0 0 56.61 68.66 57.418 57.418 0 0 0 46.8-24.08A30.63 30.63 0 0 0 202 144.88a40.796 40.796 0 0 0 26.84-38.12"/><path fill="#FEC514" d="m104.64 87.76 44.77 20.41 45.16-39.57a50.49 50.49 0 0 0-91.15-38.47l-7.52 39 8.74 18.63Z"/><path fill="#00BFB3" d="M58.31 135.17a50.619 50.619 0 0 0 91.48 38.53l7.45-38.84-10-19-44.89-20.5-44.04 39.81Z"/><path fill="#F04E98" d="m58 57.7 30.7 7.24 6.72-34.88A24.25 24.25 0 0 0 58 57.7Z"/><path fill="#1BA9F5" d="M55.36 65a33.84 33.84 0 0 0-1.47 63.74l43-38.91L89 73l-33.64-8Z"/><path fill="#93C90E" d="M157.65 173.7a24.09 24.09 0 0 0 38.79-19.18 24.354 24.354 0 0 0-1.46-8.41l-30.65-7.17-6.68 34.76Z"/><path fill="#07C" d="m163.89 130.91 33.75 7.89a34.153 34.153 0 0 0 23.24-32.13 33.778 33.778 0 0 0-21.82-31.56l-44.13 38.67 8.96 17.13Z"/></g><defs><clipPath id="a"><path fill="#fff" d="M0 0h253v300H0z"/></clipPath></defs></svg>