<svg xmlns="http://www.w3.org/2000/svg" xml:space="preserve" width="279.184" height="187.477"><defs><clipPath id="b"><path d="M0 792h612V0H0v792z"/></clipPath><clipPath id="c"><path d="M0 792h612V0H0v792z"/></clipPath><clipPath id="d"><path d="M96.008 715.93h88.29v-62.176h-88.29v62.176z"/></clipPath><clipPath id="e"><path d="M0 792h612V0H0v792z"/></clipPath><clipPath id="f"><path d="M0 792h612V0H0v792z"/></clipPath><clipPath id="g"><path d="M0 792h612V0H0v792z"/></clipPath><clipPath id="h"><path d="M0 792h612V0H0v792z"/></clipPath><clipPath id="i"><path d="M121.202 708.378h45.899v-45.859h-45.899v45.859z"/></clipPath><clipPath id="j"><path d="M0 792h612V0H0v792z"/></clipPath><clipPath id="k"><path d="M40.403 726.188h212.402V664.37H40.403v61.818z"/></clipPath><clipPath id="l"><path d="M0 792h612V0H0v792z"/></clipPath><clipPath id="m"><path d="M39.52 688.644H238.9v-73.818H39.52v73.818z"/></clipPath><clipPath id="a"><path d="M0 792h612V0H0v792z"/></clipPath></defs><g clip-path="url(#a)" style="display:inline" transform="matrix(1.25 0 0 -1.25 -43.551 915.936)"><path d="M0 0c1.824 0 3.552-.432 4.417-1.296.144-1.345-1.057-3.505-1.825-3.505-.912.336-1.776.529-2.832.529-4.368 0-6.529-4.513-6.529-8.977 0-2.784.96-4.465 3.169-4.465 2.352 0 4.752 1.584 6.096 2.784.336-.239.768-1.008.768-1.872 0-.96-.288-1.872-1.152-2.736-1.536-1.536-4.128-2.832-7.873-2.832-4.32 0-7.296 2.448-7.296 8.161C-13.057-6.721-8.113 0-.048 0H0z" style="fill:#373535;fill-opacity:1;fill-rule:nonzero;stroke:none" transform="translate(61.491 609.137)"/><path d="M0 0c2.352 0 6.625 4.129 7.825 12.001.048.48.096.624.192 1.104a6.019 6.019 0 0 1-1.969.336c-1.776 0-3.6-.528-5.232-2.736-1.68-2.352-2.4-5.28-2.4-7.633C-1.584 1.057-1.008 0-.048 0H0zm-7.729 2.16c0 2.832.96 7.777 4.561 11.377 3.072 3.168 6.816 3.937 10.225 3.937 2.256 0 5.328-.72 7.248-1.105-.48-2.112-1.632-10.08-2.16-14.688-.24-1.969-.336-4.705-.24-5.713-1.584-.672-4.56-.864-5.377-.864-.431 0-.528 1.968-.383 3.84.047.624.144 1.536.191 1.92-1.872-3.12-5.568-5.76-9.456-5.76-2.784 0-4.609 2.304-4.609 7.008v.048z" style="fill:#373535;fill-opacity:1;fill-rule:nonzero;stroke:none" transform="translate(75.602 591.664)"/><path d="M0 0c1.968 0 3.84-.72 4.705-1.632-.048-1.345-1.104-3.6-2.785-2.976-.72.24-1.44.431-2.4.431-1.296 0-2.4-.576-2.4-1.775 0-.912.672-1.585 3.888-3.841 2.305-1.68 3.217-3.168 3.217-5.28 0-3.505-3.313-7.297-9.073-7.297-2.352 0-4.417.912-5.089 1.872-.864 1.44-.192 4.272.769 3.793 1.248-.624 3.312-1.297 4.992-1.297 1.584 0 2.592.721 2.592 1.681 0 .815-.72 1.536-3.648 3.6-2.449 1.824-3.217 3.504-3.217 5.424C-8.449-3.313-5.04 0-.048 0H0z" style="fill:#373535;fill-opacity:1;fill-rule:nonzero;stroke:none" transform="translate(101.858 609.137)"/><path d="M0 0c1.969 0 3.841-.72 4.705-1.632-.048-1.345-1.103-3.6-2.784-2.976-.72.24-1.441.431-2.4.431-1.296 0-2.4-.576-2.4-1.775 0-.912.672-1.585 3.888-3.841 2.304-1.68 3.216-3.168 3.216-5.28 0-3.505-3.313-7.297-9.073-7.297-2.352 0-4.416.912-5.088 1.872-.864 1.44-.192 4.272.768 3.793 1.248-.624 3.312-1.297 4.992-1.297 1.584 0 2.592.721 2.592 1.681 0 .815-.72 1.536-3.648 3.6-2.448 1.824-3.216 3.504-3.216 5.424C-8.448-3.313-5.04 0-.047 0H0z" style="fill:#373535;fill-opacity:1;fill-rule:nonzero;stroke:none" transform="translate(118.417 609.137)"/><path d="M0 0c2.353 0 6.625 4.129 7.825 12.001.048.48.097.624.193 1.104a6.024 6.024 0 0 1-1.969.336c-1.776 0-3.6-.528-5.233-2.736-1.679-2.352-2.4-5.28-2.4-7.633C-1.584 1.057-1.008 0-.047 0H0zm-7.729 2.16c0 2.832.961 7.777 4.561 11.377 3.072 3.168 6.816 3.937 10.225 3.937 2.256 0 5.329-.72 7.249-1.105-.48-2.112-1.632-10.08-2.16-14.688-.241-1.969-.336-4.705-.241-5.713-1.584-.672-4.559-.864-5.376-.864-.431 0-.528 1.968-.384 3.84.048.624.144 1.536.192 1.92-1.872-3.12-5.568-5.76-9.456-5.76-2.785 0-4.61 2.304-4.61 7.008v.048z" style="fill:#373535;fill-opacity:1;fill-rule:nonzero;stroke:none" transform="translate(133.536 591.664)"/><path d="M0 0c2.209 3.552 5.088 6.24 9.121 6.24 3.408 0 4.512-3.168 3.889-7.68-.336-2.113-.912-5.137-1.297-7.921-.336-2.353-.576-4.464-.527-5.905-1.248-.624-4.897-.864-5.713-.864-.336 0-.385 2.641.048 5.425.383 2.304 1.2 6.48 1.584 8.881.241 1.391.192 3.072-1.152 3.072-1.777 0-6-2.833-8.113-14.449-.145-.96-.528-1.536-1.057-1.872-.719-.433-2.256-.817-5.375-.865.576 2.928 1.488 8.929 2.16 13.345.623 4.032.864 6.625.719 7.633.817.288 5.09 1.2 5.568 1.2.53 0 .625-1.488.145-5.089C-.047.815-.096.288-.145 0H0z" style="fill:#373535;fill-opacity:1;fill-rule:nonzero;stroke:none" transform="translate(158.688 602.897)"/><path d="M0 0c2.111 0 6.385 3.937 7.584 10.897.049.384.193 1.104.289 1.537-.625.576-1.441.96-2.736.96-4.85 0-7.01-5.809-7.01-9.986C-1.873 1.152-1.104 0-.049 0H0zm-3.168-4.944c-3.072 0-4.992 2.736-4.992 7.44 0 7.777 4.847 14.93 13.008 14.93 1.441 0 2.736-.384 3.552-.864.432 2.208 1.44 9.025 1.489 11.041 1.343.24 4.224.671 5.519.671.53 0 .674-.527.481-1.727-1.153-7.201-3.215-21.026-3.6-24.099C12-.144 11.953-2.688 12-4.128c-1.535-.672-4.656-.816-5.471-.816-.338 0-.529 2.208-.433 4.176.049.624.144 1.537.144 1.68C3.84-3.024.527-4.944-3.121-4.944h-.047z" style="fill:#373535;fill-opacity:1;fill-rule:nonzero;stroke:none" transform="translate(183.073 591.711)"/><path d="M0 0c2.545 5.665 5.568 6.913 7.537 6.913.625 0 1.584-.384 2.016-.864.193-1.584-1.055-4.752-2.16-5.952-.577.288-1.295.576-2.112.576-1.633 0-4.849-2.545-6.865-13.489-.145-.913-.432-1.297-.959-1.537-.816-.48-4.033-.864-5.568-.912.718 3.937 1.966 11.953 2.447 16.658.144 1.2.191 3.408.096 4.272.912.432 4.513 1.248 5.328 1.248.433 0 .769-2.641.095-6.913H0z" style="fill:#373535;fill-opacity:1;fill-rule:nonzero;stroke:none" transform="translate(208.032 602.224)"/><path d="M0 0c2.354 0 6.625 4.129 7.826 12.001.047.48.096.624.192 1.104a6.019 6.019 0 0 1-1.969.336c-1.776 0-3.6-.528-5.233-2.736-1.679-2.352-2.4-5.28-2.4-7.633C-1.584 1.057-1.008 0-.047 0H0zm-7.729 2.16c0 2.832.961 7.777 4.561 11.377 3.072 3.168 6.816 3.937 10.225 3.937 2.256 0 5.328-.72 7.25-1.105-.481-2.112-1.633-10.08-2.161-14.688-.24-1.969-.337-4.705-.24-5.713-1.584-.672-4.56-.864-5.377-.864-.431 0-.527 1.968-.384 3.84.048.624.144 1.536.193 1.92-1.873-3.12-5.568-5.76-9.457-5.76-2.785 0-4.61 2.304-4.61 7.008v.048z" style="fill:#373535;fill-opacity:1;fill-rule:nonzero;stroke:none" transform="translate(224.975 591.664)"/></g><g style="display:inline"><g clip-path="url(#b)" transform="matrix(1.25 0 0 -1.25 -43.551 915.936)"><path d="M0 0c1.584-18.452-27.455-36.014-64.859-39.223-37.404-3.209-69.01 9.151-70.592 27.602-1.584 18.455 27.455 36.016 64.859 39.225C-33.188 30.812-1.582 18.455 0 0" style="fill:#bbe6fb;fill-opacity:1;fill-rule:nonzero;stroke:none" transform="translate(210.878 690.483)"/></g><g clip-path="url(#c)" transform="matrix(1.25 0 0 -1.25 -43.551 915.936)"><g clip-path="url(#d)" style="opacity:.35000604"><path d="M0 0c-14.268.232-30.964-5.433-43.387-10.738a35.89 35.89 0 0 1-1.989-11.797c0-21.888 19.764-39.634 44.145-39.634 24.381 0 44.145 17.746 44.145 39.634 0 6.927-1.984 13.435-5.463 19.101C27.512-1.889 13.842-.225 0 0" style="fill:#fff;fill-opacity:1;fill-rule:nonzero;stroke:none" transform="translate(141.384 715.923)"/></g></g><g clip-path="url(#e)" transform="matrix(1.25 0 0 -1.25 -43.551 915.936)"><path d="M0 0c-7.899.482-21.514-3.639-32.867-7.75a33.739 33.739 0 0 1-2.683-13.201c0-19.178 17.388-34.725 35.782-34.725 18.273 0 34.44 15.572 35.782 34.725.436 6.237-1.711 12.114-4.692 17.181C19.552-1.697 7.061-.431 0 0" style="fill:#fff;fill-opacity:1;fill-rule:nonzero;stroke:none" transform="translate(140.153 715.928)"/></g><g clip-path="url(#f)" transform="matrix(1.25 0 0 -1.25 -43.551 915.936)"><path d="M0 0c.969 2.146 2.437 3.197 3.859 4.996-.158.426-.504 1.819-.504 2.302a3.907 3.907 0 0 0 3.906 3.906 3.89 3.89 0 0 0 1.44-.278c6.465 4.927 14.976 7.075 23.529 5.163a29.763 29.763 0 0 0 2.299-.623c-8.453 1.172-17.981-1.822-24.462-7.053.198-.467.747-1.802.747-2.339 0-2.157-1.396-2.682-3.553-2.682-.49 0-.958.094-1.391.259C4.406 1.685 2.612-2.06 1.734-4.401c3.584-3.206 6.822-4.368 11.042-5.945-.011.201.145.387.145.592 0 6.503 5.725 11.788 12.229 11.788 5.828 0 10.654-4.238 11.596-9.798 2.908 1.85 5.72 3.268 7.863 6.01-.5.61-1.039 2.337-1.039 3.187a3.545 3.545 0 0 0 3.545 3.544c.277 0 .543-.04.802-.1a31.013 31.013 0 0 1 2.434 7.05c-10.17 7.529-29.847 6.502-29.847 6.502s-15.658.817-26.258-4.349C-5.047 8.969-3.008 4.11 0 0" style="fill:#373535;fill-opacity:1;fill-rule:nonzero;stroke:none" transform="translate(119.882 697.495)"/><path d="M0 0a6.551 6.551 0 0 0 1.42-1.771c.951-1.71-.957-3.275-2.914-3.275a3.5 3.5 0 0 0-.582.059c-2.205-3.446-6.067-7.865-9.498-10.089 5.261-.862 10.222-2.969 14.17-6.225 2.875 5.151 5.08 12.589 5.08 18.907 0 4.809-2.123 8.334-5.328 10.92C2.18 5.95.805 2.347 0 0" style="fill:#373535;fill-opacity:1;fill-rule:nonzero;stroke:none" transform="translate(168.49 700.428)"/><path d="M0 0c1.753 4.841 6.065 8.592 10.144 11.892-.597.817-1.492 2.84-1.865 3.798a28.545 28.545 0 0 0-12.791 8.094c-.025-.109-.056-.215-.082-.324a25.873 25.873 0 0 1-.441-8.584A5.13 5.13 0 0 0-.85 9.834c0-1.489-1.305-3.647-2.318-4.586C-2.067 2.872-1.316 1.726 0 0" style="fill:#373535;fill-opacity:1;fill-rule:nonzero;stroke:none" transform="translate(125.784 667.803)"/><path d="M0 0c-2.091 2.079-3.537 6.226-4.894 8.83a5.13 5.13 0 0 0-.78-.066c-2.836 0-5.807 2.38-5.135 5.134.372 1.524 1.424 2.521 3.137 3.353-.39 3.157-.496 7.695.237 10.977.21.939.655 1.379.95 2.273-3.129 4.579-5.151 10.589-5.151 16.552 0 .218.011.433.016.649-5.288-2.652-9.253-6.83-9.253-13.407 0-14.548 8.379-28.819 20.846-34.413.009.039.017.079.027.118" style="fill:#373535;fill-opacity:1;fill-rule:nonzero;stroke:none" transform="translate(125.476 663.74)"/><path d="M0 0c-1.611-4.582-5.967-7.873-11.1-7.873-2.746 0-5.265.947-7.267 2.521-4.127-3.214-7.871-8.86-9.774-13.758.854-.919 1.449-1.675 2.407-2.49 2.887-.752 6.863 0 9.988 0 12.57 0 23.703 5.592 30.086 15.398C10.096-3.263 5.09-.466 0 0" style="fill:#373535;fill-opacity:1;fill-rule:nonzero;stroke:none" transform="translate(156.131 683.851)"/></g><g clip-path="url(#g)" transform="matrix(1.25 0 0 -1.25 -43.551 915.936)"><path d="M0 0a28.451 28.451 0 0 0 3.605 5.931c-.158.425-.25.884-.25 1.367a3.907 3.907 0 0 0 3.906 3.906 3.89 3.89 0 0 0 1.44-.278c6.465 4.927 14.976 7.075 23.529 5.163a29.763 29.763 0 0 0 2.299-.623c-8.453 1.172-17.187-1.419-23.668-6.651a3.906 3.906 0 0 0-3.6-5.423c-.49 0-.958.094-1.391.259a26.294 26.294 0 0 1-3.539-6.48c3.078-3.317 6.856-5.94 11.075-7.517-.01.201-.031.4-.031.605 0 6.503 5.271 11.775 11.775 11.775 5.828 0 10.654-4.238 11.596-9.798 2.908 1.85 5.492 4.226 7.634 6.968a3.5 3.5 0 0 0-.81 2.229 3.545 3.545 0 0 0 3.545 3.544c.277 0 .543-.04.802-.1a31.013 31.013 0 0 1 2.434 7.05c-10.17 7.529-29.847 6.502-29.847 6.502s-15.658.817-26.258-4.349C-5.047 8.969-3.008 4.11 0 0" style="fill:#1287b1;fill-opacity:1;fill-rule:nonzero;stroke:none" transform="translate(119.56 695.794)"/><path d="M0 0a3.518 3.518 0 0 0 1.18-2.621 3.546 3.546 0 0 0-3.545-3.545 3.5 3.5 0 0 0-.582.059 28.689 28.689 0 0 0-8.559-8.608 28.662 28.662 0 0 0 13.793-6.201A35.595 35.595 0 0 1 6.805-3.514c0 4.809-2.123 8.334-5.328 10.92A28.518 28.518 0 0 0 0 0" style="fill:#1287b1;fill-opacity:1;fill-rule:nonzero;stroke:none" transform="translate(169.04 699.848)"/><path d="M0 0a28.567 28.567 0 0 0 8.878 12.484 11.755 11.755 0 0 0-1.462 2.669 28.54 28.54 0 0 0-12.791 8.094c-.025-.109-.057-.215-.082-.324a25.82 25.82 0 0 1-.441-8.584 5.131 5.131 0 0 0 4.185-5.042A5.124 5.124 0 0 0-3.365 5.53 30.815 30.815 0 0 1 0 0" style="fill:#1287b1;fill-opacity:1;fill-rule:nonzero;stroke:none" transform="translate(126.325 666.64)"/><path d="M0 0a28.624 28.624 0 0 0-5.202 7.07 5.152 5.152 0 0 0-.78-.065 5.13 5.13 0 0 0-2.238 9.75 28.47 28.47 0 0 0 1.238 12.463 28.394 28.394 0 0 0-4.962 16.076c0 .218.01.433.015.648-5.288-2.651-9.253-6.83-9.253-13.406 0-14.549 8.688-27.06 21.155-32.654.009.039.017.079.027.118" style="fill:#1287b1;fill-opacity:1;fill-rule:nonzero;stroke:none" transform="translate(125.462 663.798)"/><path d="M0 0c-1.611-4.582-5.967-7.873-11.1-7.873-2.746 0-5.265.947-7.267 2.521-4.127-3.214-7.242-7.595-9.144-12.494a31.844 31.844 0 0 1 2.723-2.599 35.835 35.835 0 0 1 9.042-1.155c12.57 0 23.621 6.49 30.004 16.295C10.014-2.365 5.09-.466 0 0" style="fill:#1287b1;fill-opacity:1;fill-rule:nonzero;stroke:none" transform="translate(155.81 682.15)"/></g><g clip-path="url(#h)" transform="matrix(1.25 0 0 -1.25 -43.551 915.936)"><g clip-path="url(#i)"><path d="m0 0 10.879 2.595-10.92.557 8.887 6.792-10.084-3.615 6.853 9.497-9.465-6.291 3.309 11.117-6.5-9.163-.148 11.579-4.277-10.314-3.566 10.437.193-12.295-6.163 11.021 3.335-11.702-9.997 7.27 7.831-9.84-12.411 4.564 9.795-7.247-12.56-.386 12.842-3.314-12.853-2.779 12.687-.92-10.699-6.851 11.017 3.994-7.644-9.681L-20-7.185l-3.478-12.991 7.457 10.572-1.045-12.486 4.233 11.319 3.603-11.897.876 11.933 5.348-10.181-3.16 11.645 9.793-7.586-6.322 9.672 10.744-4.186-8.215 8.073 11.016-.866L0 0z" style="fill:#fff;fill-opacity:1;fill-rule:nonzero;stroke:none" transform="translate(156.222 685.187)"/></g></g><g clip-path="url(#j)" transform="matrix(1.25 0 0 -1.25 -43.551 915.936)"><g clip-path="url(#k)" style="opacity:.35000604"><path d="M0 0c33.74 33.739 60.687 44.155 85.143 48.91 3.236.629 3.848 7.7 3.848 7.7s.453-5.208 2.718-5.887c2.264-.68 5.207 8.152 5.207 8.152s-2.717-7.926 0-8.379c2.718-.453 7.699 7.699 7.699 7.699s-2.037-7.019-.678-7.472c1.357-.453 8.15 10.189 8.15 10.189s-4.076-7.019-.226-7.699c3.851-.679 9.467 4.791 9.467 4.791s-4.416-5.005-2.448-5.696c8.379-2.945 15.159 7.945 15.159 7.945s-1.571-4.775-5.647-9.983c8.83-2.264 15.389 11.039 15.389 11.039l-6.559-13.303c3.397-1.813 16.985 13.812 16.985 13.812s-7.02-12.228-11.096-14.718c2.264-1.812 10.416 5.434 10.416 5.434s-6.567-8.151-4.076-8.604c3.623-2.944 16.982 15.171 16.982 15.171s-5.207-10.642-12.906-19.021c6.435-3.219 22.418 17.436 22.418 17.436s-.453-6.567-12.002-16.983c8.605 1.132 19.701 17.436 19.701 17.436s-4.076-12.228-13.814-20.832c8.449.879 21.964 21.738 21.964 21.738s-5.207-14.492-15.849-22.871c11.775-2.604 28.758 14.945 28.758 14.945s-6.68-12.455-15.399-17.549c9.738-3.736 23.098 11.662 23.098 11.662s-13.36-20.607-34.645-19.701c-6.984.297-28.109 21.188-73.368 19.474C44.609 42.57 31.929 17.209 0 0" style="fill:#373535;fill-opacity:1;fill-rule:nonzero;stroke:none" transform="translate(40.403 664.37)"/></g><path d="M0 0c33.74 33.739 60.686 44.154 85.142 48.91 3.237.629 3.849 7.699 3.849 7.699s.452-5.209 2.718-5.887c2.264-.679 5.207 8.151 5.207 8.151s-2.717-7.926 0-8.378c2.718-.452 7.699 7.699 7.699 7.699s-2.037-7.019-.68-7.472c1.359-.453 8.152 10.19 8.152 10.19s-4.076-7.02-.226-7.699c3.849-.68 9.467 4.79 9.467 4.79s-4.416-5.005-2.448-5.696c8.379-2.944 15.157 7.945 15.157 7.945s-1.571-4.775-5.645-9.983c8.83-2.265 15.389 11.04 15.389 11.04l-6.559-13.305c3.397-1.811 16.983 13.812 16.983 13.812s-7.018-12.226-11.094-14.717c2.264-1.812 10.416 5.434 10.416 5.434s-6.567-8.152-4.076-8.604c3.623-2.945 16.982 15.171 16.982 15.171s-5.209-10.643-12.906-19.021c6.435-3.22 22.418 17.436 22.418 17.436s-.453-6.568-12.002-16.984c8.605 1.133 19.701 17.437 19.701 17.437s-4.076-12.228-13.814-20.833c8.449.879 21.964 21.738 21.964 21.738s-5.207-14.492-15.849-22.87c11.775-2.604 28.758 14.944 28.758 14.944s-6.68-12.453-15.399-17.548c9.738-3.736 23.098 11.662 23.098 11.662s-13.36-20.607-34.647-19.701c-6.982.298-28.107 21.189-73.367 19.474C44.609 42.57 31.928 17.209 0 0" style="fill:#373535;fill-opacity:1;fill-rule:nonzero;stroke:none" transform="translate(41.786 666.933)"/></g><g clip-path="url(#l)" transform="matrix(1.25 0 0 -1.25 -43.551 915.936)"><g clip-path="url(#m)" style="opacity:.35000604"><path d="M0 0c17.832-8.945 34.137 1.358 54.686-4.433 15.623-4.404 34.645-9.833 60.458-6.096 25.814 3.735 47.893 14.944 58.424 34.985 3.283 8.943 16.642-2.039 16.642-2.039s-9.736 4.076-9.509 2.151c.226-1.924 14.605-8.604 14.605-8.604s-13.021 4.076-12.228 1.019c.793-3.057 16.302-15.285 16.302-15.285s-17.548 13.36-19.019 11.549c-1.473-1.812 7.472-9.172 7.472-9.172s-14.832 9.172-20.041 6.467c-3.746-1.943 15.399-14.506 15.399-14.506s-12.455 9.512-15.399 7.021c-2.943-2.492 14.04-22.871 14.04-22.871S162.583 1.019 160.66 0c-1.926-1.019 5.32-10.983 5.32-10.983s-9.51 10.417-12.113 8.605c-2.604-1.812 13.586-28.871 13.586-28.871S149.904-3.511 142.658-8.151c11.379-24.966 7.133-28.533 7.133-28.533s-1.452 25.47-15.625 24.796c-7.133-.34 3.396-19.021 3.396-19.021s-9.691 17.062-16.145 16.722c11.895-22.511 7.655-31.667 7.655-31.667s1.967 19.226-14.166 29.925c6.113-5.433-3.836-29.925-3.836-29.925s8.752 36.091-6.455 29.21c-2.403-1.085-.17-18.002-.17-18.002s-3.057 19.362-7.641 18.342c-2.673-.593-16.984-26.833-16.984-26.833s11.719 28.362 8.153 27.173c-2.598-.867-7.473-12.568-7.473-12.568s2.377 11.549 0 12.228c-2.377.68-15.625-12.228-15.625-12.228s9.851 11.549 8.152 13.927c-2.574 3.603-5.591 3.772-9.171 2.377-5.209-2.03-12.227-11.548-12.227-11.548s6.996 9.637 5.773 13.247c-1.963 5.8-22.077-11.209-22.077-11.209s11.888 11.209 9.171 13.587c-2.717 2.377-17.471 1.642-22.078 1.655C8.832-6.454 4.124-3.267 0 0" style="fill:#373535;fill-opacity:1;fill-rule:nonzero;stroke:none" transform="translate(39.52 660.68)"/></g><path d="M0 0c17.832-8.945 34.136 1.358 54.685-4.434 15.623-4.402 34.646-9.832 60.46-6.095 25.814 3.736 47.891 14.945 58.422 34.984 3.283 8.944 16.642-2.037 16.642-2.037s-9.736 4.075-9.509 2.15c.226-1.924 14.605-8.604 14.605-8.604s-13.021 4.075-12.228 1.018c.793-3.056 16.304-15.284 16.304-15.284s-17.55 13.361-19.021 11.548c-1.471-1.811 7.473-9.17 7.473-9.17s-14.833 9.17-20.041 6.467C164.045 8.599 183.19-3.963 183.19-3.963s-12.455 9.511-15.398 7.02c-2.944-2.492 14.041-22.871 14.041-22.871S162.583 1.019 160.659 0c-1.924-1.02 5.322-10.982 5.322-10.982s-9.512 10.416-12.115 8.604c-2.604-1.811 13.586-28.871 13.586-28.871S149.903-3.51 142.657-8.152c11.379-24.965 7.133-28.532 7.133-28.532s-1.452 25.47-15.625 24.795c-7.133-.34 3.396-19.02 3.396-19.02s-9.691 17.063-16.144 16.723c11.896-22.512 7.654-31.668 7.654-31.668s1.967 19.227-14.166 29.926c6.113-5.434-3.836-29.926-3.836-29.926s8.754 36.091-6.453 29.21c-2.403-1.086-.17-18.002-.17-18.002s-3.059 19.361-7.642 18.342c-2.674-.593-16.985-26.833-16.985-26.833s11.719 28.362 8.153 27.172c-2.598-.865-7.473-12.566-7.473-12.566s2.378 11.548 0 12.227c-2.377.679-15.624-12.227-15.624-12.227s9.851 11.548 8.151 13.926c-2.574 3.603-5.591 3.771-9.17 2.376-5.21-2.029-12.228-11.547-12.228-11.547s6.996 9.638 5.774 13.247C55.438-4.73 35.325-21.738 35.325-21.738s11.888 11.209 9.17 13.586C41.778-5.774 27.024-6.51 22.417-6.496 8.831-6.453 4.124-3.267 0 0" style="fill:#373535;fill-opacity:1;fill-rule:nonzero;stroke:none" transform="translate(38.84 662.718)"/></g></g></svg>